<svg width="500" height="500" viewBox="0 0 500 500" fill="none" xmlns="http://www.w3.org/2000/svg">
<path d="M336.255 40.0168H150.705C150.705 40.0168 98.1223 141.864 93.578 154.489C89.0338 167.097 99.1807 185.458 117.425 164.703C135.661 143.955 147.639 134.489 168.689 123.729C135.955 211.12 214.274 408.841 330.762 455.779C370.803 471.898 361.16 437.132 349.317 430.37C337.456 423.616 316.348 406.851 316.348 386.716V178.831L327.612 179.646L366.612 216.68L407.191 216.579V183.064L334.743 133.069V114.917H407.502C405.612 93.5316 399.572 82.5195 397.212 77.5301C394.86 72.549 380.463 60.2434 359.371 56.1443C359.371 56.1443 358.195 51.6924 356.801 47.6606C355.617 44.2083 349.997 40 336.264 40L336.255 40.0168Z" fill="white"/>
<path d="M306.948 50.5078C305.05 50.5414 158.071 50.5078 158.071 50.5078C158.071 50.5078 109.151 144.392 107.706 149.432C106.262 154.471 108.689 160.141 113.46 153.195C129.932 129.188 168.05 103.477 204.186 99.6043C130.184 181.493 227.445 389.874 333.576 441.835C340.446 445.204 344.739 441.071 336.877 434.838C329.006 428.597 307.318 412.772 306.948 389.606C306.654 370.807 306.948 50.5078 306.948 50.5078Z" fill="black"/>
<path d="M314.038 52.8853C325.411 53.49 353.861 62.3182 356.885 65.3169C358.632 66.5096 358.002 67.1228 359.791 67.9124C366.049 68.7188 383.067 73.9098 388.963 90.2893C385.612 89.2982 379.934 87.1058 377.179 86.9042C370.719 87.299 364.671 85.2831 354.667 87.1646C352.887 87.1646 349.165 89.7601 354.869 91.1629C361.135 91.7677 371.366 94.9764 373.122 94.9764L371.727 96.6983L314.029 96.7319V52.8853H314.038Z" fill="black"/>
<path d="M314.038 132.238L398.766 190.901V206.239C398.766 208.675 397.044 209.23 396.397 206.718C395.036 201.359 392.626 193.766 392.626 193.783L380.228 186.088C378.523 184.988 376.288 184.215 375.037 185.366L371.022 188.272C370.509 188.944 370.081 190.154 370.198 190.851L370.669 199.797L358.523 186.777L363.705 178.982C365.671 176.21 361.236 173.951 361.236 173.951L314.029 165.274V132.229L314.038 132.238Z" fill="black"/>
<path d="M351.676 71.8351C352.861 71.8351 353.844 70.8019 353.844 69.5335C353.844 68.2651 352.861 67.2319 351.676 67.2319C350.492 67.2319 349.518 68.2651 349.518 69.5335C349.518 70.8019 350.467 71.8351 351.676 71.8351Z" fill="white"/>
<path d="M188.797 200.091C187.697 199.427 187.344 197.991 188.008 196.89L213.375 154.967C214.039 153.867 215.475 153.523 216.575 154.186C217.684 154.85 218.037 156.286 217.365 157.395L192.006 199.318C191.561 200.04 190.797 200.435 190.007 200.435C189.595 200.435 189.175 200.326 188.797 200.099V200.091Z" fill="white"/>
<path d="M204.715 262.711C203.463 262.4 202.699 261.132 203.01 259.88L222.38 181.326C222.69 180.083 223.95 179.31 225.202 179.621C226.445 179.932 227.218 181.2 226.907 182.443L207.529 260.998C207.268 262.064 206.319 262.77 205.269 262.77C205.084 262.77 204.9 262.745 204.706 262.703L204.715 262.711Z" fill="white"/>
<path d="M227.31 314.537C226.033 314.386 225.109 313.227 225.269 311.95L237.6 207.331C237.751 206.055 238.91 205.139 240.187 205.282C241.464 205.433 242.379 206.592 242.228 207.877L229.897 312.496C229.754 313.681 228.755 314.554 227.587 314.554C227.495 314.554 227.394 314.554 227.302 314.537H227.31Z" fill="white"/>
<path d="M254.257 356.83C252.972 356.78 251.972 355.688 252.022 354.403L257.306 231.817C257.365 230.532 258.457 229.532 259.742 229.582C261.027 229.641 262.026 230.725 261.976 232.01L256.693 354.604C256.634 355.856 255.609 356.839 254.366 356.839C254.366 356.839 254.29 356.839 254.257 356.839V356.83Z" fill="white"/>
<path d="M278.792 385.498V251.816C278.792 250.523 279.834 249.481 281.128 249.481C282.413 249.481 283.463 250.523 283.463 251.816V385.498C283.463 386.783 282.421 387.833 281.128 387.833C279.842 387.833 278.792 386.783 278.792 385.498Z" fill="white"/>
</svg>
